<?xml version="1.0" encoding="utf-8"?>
<!-- Generator: Adobe Illustrator 27.5.0, SVG Export Plug-In . SVG Version: 6.00 Build 0)  -->
<svg version="1.1" id="Layer_1" xmlns="http://www.w3.org/2000/svg" xmlns:xlink="http://www.w3.org/1999/xlink" x="0px" y="0px"
	 viewBox="0 0 2500 1666.667" style="enable-background:new 0 0 2500 1666.667;" xml:space="preserve">
<rect style="fill:#78C5D9;" width="2500" height="1666.667"/>
<g>
	<g>
		<defs>
			<path id="XMLID_00000034068335196309758990000008575930931357881277_" d="M718.654,1336.452c0,0,466.525-444.826,524.388-452.059
				c57.864-7.233,216.988,43.398,264.002,47.014c47.014,3.616,336.332,448.442,336.332,448.442H657.174L718.654,1336.452z"/>
		</defs>
		<use xlink:href="#XMLID_00000034068335196309758990000008575930931357881277_"  style="overflow:visible;fill:#254768;"/>
		<clipPath id="XMLID_00000075872271318577023950000005208299743895704201_">
			<use xlink:href="#XMLID_00000034068335196309758990000008575930931357881277_"  style="overflow:visible;"/>
		</clipPath>
		<path style="clip-path:url(#XMLID_00000075872271318577023950000005208299743895704201_);fill:#2F5481;" d="M944.452,1374.465
			c2.202-6.764,146.323-250.012,173.159-296.622s127.052-151.55,140.503-151.339s226.052,39.758,246.163,34.109
			s38.808-28.248,38.808-28.248s-231.972-72.786-277.17-75.235c-45.197-2.448-108.756-0.936-148.304,26.556
			c-39.548,27.492-432.195,418.931-422.312,440.603C705.181,1345.961,944.452,1374.465,944.452,1374.465z"/>
	</g>
	<g>
		<path style="fill:#FFFFFF;" d="M0,1008.885c67.69-24.644,144.206-24.213,211.614,1.191
			c67.408,25.404,125.15,75.572,159.691,138.745c15.653-16.267,34.767-18.178,57.341-18.849
			c124.985-3.713,250.498,50.871,332.953,144.799c18.424-25.227,48.33-38.956,79.404-42.304c31.074-3.348,62.357,1.961,93.16,7.252
			c2.78-20.4,17.822-38.915,34.875-50.471c17.053-11.556,37.57-17.147,58.063-19.291c56.358-5.895,114.917,14.311,155.623,53.7
			c24.438-41.275,73.551-62.446,120.047-74.34c86.812-22.208,178.641-32.608,265.967-12.514
			c87.326,20.094,169.775,74.118,208.772,154.736c26.018-46.252,66.013-77.954,110.827-106.416
			c120.758-76.696,275.005-98.493,412.312-58.263c0.262-25.062,20.2-45.471,39.451-61.54
			c46.659-38.947,100.136-72.269,159.903-83.408v684.754H0.55L0,1008.885z"/>
		<path style="opacity:0.29;fill:#78C5D9;" d="M0.55,1162.057c128.889-18.722,269.627,43.04,342.535,150.962
			c47.141-2.422,95.532,10.794,131.865,40.927c36.333,30.134,60.791,74.218,67.128,120.993
			c53.735-6.64,109.816-4.065,159.535,17.374c49.719,21.439,92.128,64.192,103.664,117.093
			c-24.862-46.215-72.987-75.885-124.356-86.618s-104.541-6.354-156.832-1.928c-30.518-44.451-63.318-90.721-109.779-118.082
			c-63.242-37.243-141.513-33.782-214.763-29.195c19.52-18.836,44.161-33.684,70.274-41.029
			c-72.853-61.991-174.362-89.197-268.899-74.593L0.55,1162.057z"/>
		<path style="opacity:0.29;fill:#78C5D9;" d="M892.844,1361.496c4.763-14.254,17.522-24.382,30.856-31.314
			c17.692-9.197,37.522-14.249,57.458-14.638c-5.435-19.065,2.447-39.243,15.873-53.829c13.426-14.586,33.181-22.549,52.977-23.607
			c-20.808-3.96-43.314,0.856-60.792,12.823c-17.478,11.966-29.9,31.083-33.734,51.915c-6.627-2.332-14.974-1.716-21.875-0.399
			c-14.006,2.674-28.073,7.927-37.945,18.217C885.791,1330.954,886.684,1348.636,892.844,1361.496z"/>
		<path style="opacity:0.29;fill:#78C5D9;" d="M1201.734,1513.703c32.078-110.665,133.228-195.495,246.338-217.44
			c113.111-21.945,234.013,15.664,321.709,90.397c33.62-55.84,91.807-101.609,155.406-115.877
			c-63.056-4.871-129.954,18.51-173.83,64.057c-21.702-26.505-50.698-45.511-81.83-59.805
			c-103.499-47.52-227.023-54.665-331.625-9.625c-47.836,20.598-91.946,52.431-120.337,96.094S1184.95,1464.399,1201.734,1513.703z"
			/>
		<path style="opacity:0.29;fill:#78C5D9;" d="M2136.992,1546.223c18.523-111.832,116.642-205.617,229.196-219.074
			c-18.114-55.415-7.914-119.292,26.556-166.31c-28.215,7.907-46.919,33.266-57.024,60.771
			c-10.105,27.504-11.295,57.357-12.377,86.638c-57.846,10.171-114.627,35.752-154.549,78.833
			C2128.872,1430.161,2119.306,1490.216,2136.992,1546.223z"/>
		<path style="opacity:0.29;fill:#78C5D9;" d="M1980.227,1564.714c-127.255-84.249-287.831-116.575-437.773-88.131
			c85.839-45.058,189.665-47.594,279.588-11.366c28.706,11.565,55.651,27.029,82.433,42.537
			C1933.454,1524.535,1955.768,1541.839,1980.227,1564.714z"/>
	</g>
	<g>
		<g>
			<g>
				<defs>
					<path id="XMLID_00000150788390784360910260000009919978260238373773_" d="M1327.732,258.199
						c-19.729-12.215-41.475-24.912-64.518-22.183c-7.9,0.936-15.526,3.683-23.457,4.289c-13.693,1.046-27.14-4.395-38.763-11.707
						c-8.368-5.264-16.025-11.524-23.919-17.45c-3.166-2.377-6.833-6.584-10.388-5.31c-4.584,1.663-7.693,11.197-10.168,15.081
						c-4.87,7.641-10.328,14.943-15.373,22.472c-5.985,8.93-11.929,17.892-17.644,26.998c-3.191,5.084-12.006,14.158-11.681,20.506
						c0.34,6.655,13.084,12.347,18.775,16.04c17.592,11.418,36.221,21.239,55.586,29.293c5.21,2.167,10.661,4.24,16.299,4.02
						c4.635-0.181,9.056-1.903,13.611-2.779c17.402-3.345,34.526,5.735,49.927,14.5
						C1286.589,320.712,1307.16,289.456,1327.732,258.199z"/>
				</defs>
				<use xlink:href="#XMLID_00000150788390784360910260000009919978260238373773_"  style="overflow:visible;fill:#F7D131;"/>
				<clipPath id="XMLID_00000009569553796349340400000017255163297460817543_">
					<use xlink:href="#XMLID_00000150788390784360910260000009919978260238373773_"  style="overflow:visible;"/>
				</clipPath>
				<path style="clip-path:url(#XMLID_00000009569553796349340400000017255163297460817543_);fill:#E5C028;" d="M1109.495,266.107
					c0,0,76.492,55.391,94.428,53.281c17.936-2.11,26.386-22.156,41.152-18.991c14.766,3.165,44.835,34.289,44.835,34.289
					l-26.616,28c0,0-23.677-17.45-34.402-18.505c-10.726-1.055-15.473,12.661-36.575,5.275
					c-21.101-7.385-98.121-51.698-94.428-56.973C1101.583,287.208,1109.495,266.107,1109.495,266.107z"/>
			</g>
			<path style="fill:#2F5481;" d="M1149.421,529.135c0,0,188.863-300.41,178.359-270.998
				c-4.37,12.236-173.879,275.759-173.879,275.759L1149.421,529.135z"/>
		</g>
		<path style="fill:#254768;" d="M1287.642,873.94c0,0-0.175,10.19-4.012,11.798c-3.837,1.607-28.011,9.931-28.941,14.53
			c-0.93,4.599,47.95,3.213,48.693,1.399c0.743-1.815,2.406-26.213,2.406-26.213L1287.642,873.94z"/>
		<path style="fill:#254768;" d="M1431.228,901.365c0,0-1.405,10.094,2.136,12.277c3.542,2.182,26.135,14.149,26.342,18.836
			c0.206,4.687-47.869-4.251-48.323-6.159s1.683-26.269,1.683-26.269L1431.228,901.365z"/>
		<g>
			<g>
				<defs>
					<path id="XMLID_00000005961276925220365580000010713166372616694152_" d="M1415.506,528.525
						c7.807-17.911,9.927-31.546,12.261-43.01c4.101-20.144-2.225-38.439-14.129-40.862s-24.879,11.942-28.98,32.086
						c-0.617,3.032-0.998,6.022-1.159,8.921c-0.644,11.598,7.375,21.894,18.757,24.211l-4.185,14.754L1415.506,528.525z"/>
				</defs>
				<use xlink:href="#XMLID_00000005961276925220365580000010713166372616694152_"  style="overflow:visible;fill:#FFFFFF;"/>
				<clipPath id="XMLID_00000168099581039431204330000016295508287045471624_">
					<use xlink:href="#XMLID_00000005961276925220365580000010713166372616694152_"  style="overflow:visible;"/>
				</clipPath>
				<path style="clip-path:url(#XMLID_00000168099581039431204330000016295508287045471624_);fill:#2F5481;" d="M1402.256,509.871
					c0,0,8.288,0.866,14-4.996c0,0-1.287,11.874-16.2,11.273c-14.913-0.601,0,0,0,0L1402.256,509.871"/>
			</g>
			<path style="fill:#254768;" d="M1391.666,458.4c0,0,23.913-4.624,34.906,6.802l-1.019,28.391c0,0,22.917-9.692,13.693-39.899
				c-4.457-14.595-22.709-24.606-23.287-22.006c-0.578,2.6,3.558,5.84,2.913,5.868c-0.645,0.029-19.106-9.804-24.248-6.535
				s4.542,3.962,3.429,4.535c-1.112,0.573-17.235-1.111-20.228,2.596c-2.993,3.707,6.103,3.001,6.103,3.001
				s-13.396,3.507-13.611,11.296C1370.217,456.071,1383.054,459.37,1391.666,458.4z"/>
			<path style="fill:#FFFFFF;" d="M1433.311,482.09c-1.738,3.033-5.091,4.378-7.488,3.004c-2.397-1.374-2.932-4.947-1.194-7.979
				c1.738-3.033,5.091-4.378,7.488-3.004C1434.515,475.484,1435.05,479.057,1433.311,482.09z"/>
			<path style="fill:#2F5481;" d="M1397.879,472.408c-0.398,1.955-1.943,3.29-3.452,2.983c-1.508-0.307-2.409-2.141-2.011-4.095
				c0.398-1.955,1.943-3.29,3.452-2.983C1397.377,468.62,1398.277,470.453,1397.879,472.408z"/>
			<path style="fill:#2F5481;" d="M1417.176,476.337c-0.398,1.955-1.943,3.29-3.452,2.983c-1.508-0.307-2.409-2.141-2.011-4.096
				c0.398-1.955,1.943-3.29,3.452-2.983C1416.674,472.548,1417.574,474.382,1417.176,476.337z"/>
			<path style="fill:#2F5481;" d="M1404.007,491.343c-2.438,1.574-5.478,1.803-8.144,0.678c-0.503-0.212-1.111,0.228-1.242,0.705
				c-0.16,0.583,0.201,1.029,0.705,1.242c3.117,1.315,6.866,0.949,9.7-0.882C1406.115,492.384,1405.103,490.635,1404.007,491.343
				L1404.007,491.343z"/>
			<path style="fill:#2F5481;" d="M1393.509,466.811c-0.5,0-0.978-0.289-1.195-0.775c-0.294-0.66,0.002-1.432,0.662-1.726
				c0.198-0.088,4.886-2.133,8.919,0.043c0.635,0.343,0.872,1.136,0.53,1.771c-0.344,0.636-1.136,0.872-1.772,0.53
				c-2.913-1.572-6.576,0.028-6.613,0.043C1393.867,466.775,1393.687,466.811,1393.509,466.811z"/>
			<path style="fill:#2F5481;" d="M1420.072,474.259c-0.515,0-1.003-0.306-1.21-0.812c-1.296-3.164-4.231-4.233-6.464-4.572
				c-0.714-0.108-1.204-0.775-1.096-1.489c0.108-0.714,0.769-1.205,1.489-1.096c2.375,0.361,6.638,1.641,8.49,6.166
				c0.274,0.668-0.046,1.431-0.714,1.705C1420.404,474.227,1420.236,474.259,1420.072,474.259z"/>
		</g>
		<path style="fill:#FFFFFF;" d="M1432.634,525.818c0,0,58.432,79.649,62.878,89.029c4.447,9.38,8.105,82.441,5.25,83.979
			c-2.855,1.537-11.929,3.504-15.94,1.84c-4.011-1.664-12.681-71.044-16.14-74.714c-3.46-3.671-31.333-31.719-34.076-39.058
			S1432.634,525.818,1432.634,525.818z"/>
		<g>
			<path style="fill:#254768;" d="M1503.081,744.986c0,0,82.701,90.579,89.56,89.198c6.859-1.381,13.31-6.179,12.31-9.057
				c-0.999-2.878-87.439-104.476-91.881-106.38C1508.628,716.842,1503.081,744.986,1503.081,744.986z"/>
			<path style="fill:#2F5481;" d="M1507.908,714.202c0,0-12.364-6.783-20.766-0.436c-8.402,6.347-11.104,57.771-7.325,64.702
				c3.779,6.931,21.099,76.188,27.386,86.221c7.68,12.256,33.381,14.944,50.405,17.462c17.024,2.518-9.543-103.582-22.749-131.682
				C1521.094,721.177,1507.908,714.202,1507.908,714.202z"/>
			<path style="fill:#2F5481;" d="M1482.202,724.404c0,0-33.316,134.842-29.192,143.137c4.124,8.294,8.662,11.849,10.947,9.245
				c2.284-2.605,31.242-90.992,32.192-97.815C1497.099,772.148,1482.202,724.404,1482.202,724.404z"/>
			<path style="fill:#254768;" d="M1488.297,805.492c0,0,11.715-42.124,12.323-36.477c0.608,5.648-8.141,51.082-8.385,50.234
				C1491.992,818.402,1488.297,805.492,1488.297,805.492z"/>
		</g>
		<g>
			<defs>
				<path id="XMLID_00000157285411409510383320000011197526139634578355_" d="M1355.311,634.768
					c-13.464,20.522-26.608,41.254-39.467,62.16c-6.154,10.006-12.217,20.067-18.29,30.122c-5.565,9.214-11.15,18.844-11.607,29.885
					c-0.276,6.669-0.219,13.378-0.308,20.052c-0.257,19.213-0.416,38.427-0.444,57.642c-0.004,2.767,1.23,44.49,0.976,44.552
					c1.919-0.471,17.419,4.377,19.894,2.83c2.06-1.289,1.885-11.366,2.108-13.408c1.115-10.212,2.009-20.449,2.89-30.683
					c1.365-15.84,4.073-31.531,6.266-47.266c1.723-12.36,1.984-25.495,6.116-37.377c3.121-8.973,10.043-16.226,16.566-22.874
					c7.273-7.412,14.233-15.071,21.33-22.653c3.343-3.571,6.699-7.137,10.172-10.582c1.381-1.37,3.322-4.006,5.263-4.639
					c0.344-0.112,0.655-0.231,1.02-0.137c2.574,0.667,3.727,6.058,4.364,8.099c2.021,6.472,3.316,13.191,4.562,19.847
					c3.798,20.291,6.437,40.808,8.951,61.29c2.752,22.416,5.177,44.872,7.443,67.343c0.96,9.517,1.89,19.036,2.787,28.559
					c0.449,4.761,0.89,9.524,1.32,14.287c0.249,2.754-0.504,8.2,1.818,10.162c0.756,0.639,1.752,0.901,2.714,1.132
					c4.329,1.039,17.297,5.621,19.724,0.466c1.901-4.038-0.045-9.541,0.047-13.795c0.246-11.372,0.309-22.748,0.23-34.122
					c-0.243-34.887-1.809-69.784-4.998-104.528c-0.968-10.543-2.09-21.072-3.389-31.58c-0.662-5.353-1.37-10.7-2.128-16.041
					c-0.381-2.685-0.774-5.367-1.181-8.048c-0.235-1.55-1.952-6.752-1.263-8.053c0.001-0.001,12.175-22.983,2.072-39.297
					L1355.311,634.768"/>
			</defs>
			<use xlink:href="#XMLID_00000157285411409510383320000011197526139634578355_"  style="overflow:visible;fill:#2F5481;"/>
			<clipPath id="XMLID_00000119084072445423809500000008372421362237080730_">
				<use xlink:href="#XMLID_00000157285411409510383320000011197526139634578355_"  style="overflow:visible;"/>
			</clipPath>
			<path style="clip-path:url(#XMLID_00000119084072445423809500000008372421362237080730_);fill:#254768;" d="M1314.05,813.11
				c0,0,0.543-57.967,4.742-66.83c4.198-8.863,59.709-73.237,63.441-70.438c3.732,2.799,10.962,50.146,11.662,58.542
				c0.7,8.397,7.02,83.289,6.425,87.709c-0.594,4.42-21.119-121.995-22.752-124.56c-1.633-2.565-48.28,50.146-49.446,51.779
				C1326.954,750.945,1316.072,812.068,1314.05,813.11"/>
		</g>
		<g>
			<defs>
				<path id="XMLID_00000080896569879114362580000006240387067256535937_" d="M1417.334,516.564
					c-7.141-1.852-13.487-2.357-19.137-1.767c-19.034-7.552-38.062-22.621-64.034-45.38c-39.639-34.736-77.939-78.825-79.121-77.644
					c-2.128,2.128-11.349,19.066-8.73,23.78c1.405,2.529,29.831,45.335,62.268,79.471c17.743,18.673,39.395,32.546,51.176,41.761
					c3.17,2.479,4.336,6.719,2.929,10.489c-13.287,35.596-7.373,87.494-7.373,87.494l65.56,13.347
					C1420.871,648.114,1471.347,530.568,1417.334,516.564z"/>
			</defs>
			<use xlink:href="#XMLID_00000080896569879114362580000006240387067256535937_"  style="overflow:visible;fill:#FFFFFF;"/>
			<clipPath id="XMLID_00000019644748319508571140000014282853095351756687_">
				<use xlink:href="#XMLID_00000080896569879114362580000006240387067256535937_"  style="overflow:visible;"/>
			</clipPath>
			<path style="clip-path:url(#XMLID_00000019644748319508571140000014282853095351756687_);fill:#E8F7F9;" d="M1363.266,543.647
				c0,0,1.134-10.033-0.71-13.606c-1.844-3.573-26.162-14.637-31.463-18.671c-5.302-4.034-36.463-34.013-36.441-31.759
				c0.022,2.255,23.187,27.61,34.597,36.253C1340.658,524.509,1363.266,543.647,1363.266,543.647"/>
			<path style="clip-path:url(#XMLID_00000019644748319508571140000014282853095351756687_);fill:#E8F7F9;" d="M1438.328,592.72
				c0,0-10.452-20.695-10.847-18.321c-0.396,2.374,7.223,33.217,7.223,33.217S1438.758,596.667,1438.328,592.72"/>
		</g>
		<path style="fill:#F7D131;" d="M1405.128,514.512c0,0-24.481,60.993-23.876,70.372c0.605,9.379,3.933,23.598,5.748,22.691
			c1.815-0.908,16.245-21.178,16.14-24.203c-0.105-3.025,8.313-68.091,8.313-68.091S1406.271,514.578,1405.128,514.512z"/>
		<path style="fill:#FFFFFF;" d="M1254.481,393.948c0,0-0.425-9.216-5.187-11.186c-1.071-0.443-12.891-0.134-12.536,2.533
			c0.356,2.667,8.239,4.564,8.239,4.564s-11.332,14.649-9.015,15.801c2.317,1.151,11.327,2.692,11.327,2.692L1254.481,393.948z"/>
		<path style="fill:#FFFFFF;" d="M1239.231,387.758c0,0-9.198,14.347-9.309,14.521c-0.111,0.174-2.07-4.008-0.276-5.188
			c1.795-1.179,2.615-1.282,2.615-1.282s-1.897-1.436-0.615-3.436c1.282-2,3.538-1.795,3.538-1.795s-0.823-2.564,0.486-3.179
			C1236.979,386.783,1239.231,387.758,1239.231,387.758z"/>
		<path style="fill:#2F5481;" d="M1246.756,408.351c0,0,5.582-12.498,7.072-15.106c0,0-12.475,12.138-11.547,14.142
			L1246.756,408.351z"/>
		<g>
			<path style="fill:#254768;" d="M1353.519,632.176c0,0,69.556,12.816,70.224,14.819c0.667,2.003,0.534,6.675-1.469,6.542
				c-2.003-0.134-69.69-13.885-70.624-14.953C1350.715,637.516,1353.519,632.176,1353.519,632.176z"/>
			<path style="fill:#F7D131;" d="M1380.587,636.472c0,0-3.652,8.138-2.817,8.869c0.835,0.73,10.995,3.778,11.582,2.774
				c0.587-1.004,3.235-9.139,2.504-9.243C1391.125,638.767,1380.587,636.472,1380.587,636.472z"/>
		</g>
		<path style="fill:#FFFFFF;" d="M1486.478,701.116c0,0-2.011,6.622-2.455,8.524c-0.444,1.902-1.327,9.088,0.002,9.014
			c1.329-0.074,5.244-6.708,6.773-6.815c1.53-0.107,1.91,14.159,3.432,14.539c1.522,0.38,3.17-0.19,3.234-1.141
			c0.063-0.951,0.507,0.951,2.473,0.317c1.965-0.634,2.092-2.663,2.092-2.663s0.824,1.015,1.712,0.698
			c0.888-0.317,2.98-1.141,2.917-2.283c-0.063-1.141-1.458-13.885-2.536-15.217c-1.078-1.332-4.37-6.804-4.37-6.804
			L1486.478,701.116z"/>
		<path style="fill:#2F5481;" d="M1486.478,701.116c0,0,8.211,0.606,13.273-1.83c0,0-3.757,5.332-14.064,4.467L1486.478,701.116z"/>
		<g>
			<path style="fill:#2F5481;" d="M1400.856,483.379c-0.025,0-0.05-0.001-0.076-0.003c-3.033-0.273-4.228-1.888-4.67-2.826
				c-0.58-1.232-0.523-2.66,0.146-3.639c0.252-0.369,0.636-0.609,1.109-0.695c1.332-0.241,3.412,0.859,4.687,1.645l1.904-7.792
				c0.11-0.448,0.56-0.72,1.008-0.611c0.447,0.109,0.721,0.56,0.612,1.007l-2.184,8.938c-0.066,0.267-0.259,0.485-0.517,0.582
				c-0.257,0.097-0.546,0.06-0.771-0.098c-1.839-1.29-4.022-2.272-4.492-2.015c-0.251,0.377-0.371,1.168,0.007,1.969
				c0.5,1.063,1.677,1.729,3.312,1.876c0.458,0.041,0.797,0.446,0.755,0.905C1401.646,483.054,1401.283,483.379,1400.856,483.379z"
				/>
		</g>
	</g>
	<g>
		<g>
			<path style="fill:#FFFFFF;" d="M1489.285,326.631c2.933-4.464,5.745-7.991,9.585-11.948c1.825-1.88,3.736-3.677,5.725-5.382
				c0.995-0.852,2.007-1.685,3.042-2.488c0.203-0.159,0.207-0.161,0.012-0.008c0.104-0.079,0.209-0.158,0.313-0.237
				c0.263-0.195,0.524-0.393,0.788-0.587c0.58-0.427,1.167-0.846,1.757-1.259c1.618-1.134,2.529-3.364,1.358-5.18
				c-1.036-1.607-3.446-2.574-5.18-1.358c-9.477,6.643-17.58,14.95-23.938,24.626c-1.09,1.659-0.385,4.259,1.358,5.18
				C1485.999,328.99,1488.122,328.401,1489.285,326.631L1489.285,326.631z"/>
		</g>
		<g>
			<path style="fill:#FFFFFF;" d="M1503.818,350.835c13.378-5.112,27.617-6.974,41.86-5.48c2.036,0.214,3.786-1.893,3.786-3.786
				c0-2.225-1.744-3.572-3.786-3.786c-14.811-1.553-29.962,0.435-43.873,5.751c-1.909,0.729-3.223,2.55-2.644,4.657
				C1499.663,350.018,1501.897,351.568,1503.818,350.835L1503.818,350.835z"/>
		</g>
		<g>
			<path style="fill:#FFFFFF;" d="M1501.789,377.147c14.164,3.705,27.575,9.597,39.898,17.5c4.114,2.638,7.915-3.913,3.822-6.538
				c-12.832-8.229-26.96-14.406-41.707-18.263C1499.084,368.612,1497.071,375.913,1501.789,377.147L1501.789,377.147z"/>
		</g>
	</g>
	<path style="fill:#FFFFFF;" d="M836.943,718.233c-2.498,2.337-5.814,3.84-9.329,3.747c-40.318-1.059-80.635-2.118-120.953-3.177
		c-16.728-0.439-31.291,1.01-47.638,2.755c-4.953,0.529-28.441,3.76-28.441-5.932c-0.388-1.595,0.072-3.266,0.605-4.819
		c2.576-7.513,7.197-15.343,13.162-20.722c10.535-9.5,27.529-2.313,27.815,12.092c3.062-13.8,13.984-24.674,26.174-31.831
		c5.607-3.292,11.694-6.009,18.159-6.705c9.725-1.047,19.717,2.75,26.789,9.505c7.073,6.756,11.271,16.265,12.216,26
		c5.84-7.919,13.458-14.519,22.127-19.173c3.466-1.861,7.213-3.441,11.146-3.522c5.222-0.108,10.223,2.486,14.005,6.089
		c6.401,6.1,9.729,15.276,8.724,24.061c3.618-3.156,7.418-6.282,11.938-7.897c4.521-1.615,9.957-1.46,13.69,1.56
		C843.658,705.543,841.939,713.558,836.943,718.233z"/>
	<path style="fill:#FFFFFF;" d="M1816.301,551.255c0.825,0.944,1.87,1.756,3.153,2.389c4.524,2.236,16.025,0,21.036,0
		c24.534,0,49.069,0,73.603,0c70.937,0,142.834,2.896,213.528-0.059c0.134-21.242-14.893-50.259-38.9-50.259
		c-34.1,0-45.511,9.786-45.515,9.789c5.704-4.893-15.939-44.538-19.338-48.863c-15.957-20.3-41.693-13.085-59.973-0.31
		c-5.609,3.919-46.083,38.899-43.53,43.579c-0.002-0.004-16.783-30.765-39.156-19.578c-22.304,11.152-32.102,45.927-32.164,46.147
		c0.787-2.801-16.721-8.324-18.737-8.177C1817.519,526.849,1809.536,543.515,1816.301,551.255z"/>
</g>
</svg>
